<svg version="1.1" id="Layer_1" xmlns="http://www.w3.org/2000/svg" xmlns:xlink="http://www.w3.org/1999/xlink" x="0px" y="0px"
	 width="100%" viewBox="0 0 1254 1254" enable-background="new 0 0 1254 1254" xml:space="preserve">
<path fill="#FDCF03" opacity="1.000000" stroke="none" 
	d="
M865.000000,1255.000000 
	C576.666687,1255.000000 288.833344,1255.000000 1.000000,1255.000000 
	C1.000000,837.000000 1.000000,419.000000 1.000000,1.000000 
	C419.000000,1.000000 837.000000,1.000000 1255.000000,1.000000 
	C1255.000000,419.000000 1255.000000,837.000000 1255.000000,1255.000000 
	C1125.166626,1255.000000 995.333313,1255.000000 865.000000,1255.000000 
M208.224930,559.875549 
	C207.443253,560.487244 206.661575,561.098938 205.241730,561.962952 
	C198.448563,567.264587 193.645996,573.955261 190.741302,582.871948 
	C190.175949,586.976746 189.121658,591.081055 189.117401,595.186401 
	C189.031586,677.890564 189.037552,760.594910 189.154694,843.298950 
	C189.161179,847.878479 190.290482,852.456482 190.903641,857.836670 
	C196.138489,881.030518 208.653534,898.932495 229.199585,911.208984 
	C239.085205,917.115845 249.909775,919.943359 261.346222,922.812073 
	C263.050323,923.206299 264.754272,923.945068 266.458527,923.945740 
	C398.858551,923.997925 531.258606,923.998108 663.658630,923.930054 
	C665.516296,923.929077 667.373352,923.015015 669.998108,922.425964 
	C672.295776,923.402832 674.611511,924.339478 676.888367,925.362671 
	C709.259094,939.910522 741.438904,954.901245 774.032837,968.930115 
	C828.377625,992.320740 886.439087,953.548523 886.348755,894.387573 
	C886.265259,839.724915 886.202759,785.062073 886.191711,730.399353 
	C886.165283,599.406433 886.212769,468.413483 886.148560,337.420593 
	C886.126648,292.673370 850.643005,256.161804 806.906799,256.123718 
	C674.580688,256.008484 542.254272,256.000366 409.928101,256.112640 
	C367.416077,256.148712 331.069122,290.725494 330.053253,333.207306 
	C329.113251,372.515961 329.466309,411.868683 329.949310,451.193451 
	C330.256012,476.167297 354.389648,494.382446 378.810852,489.087494 
	C397.588623,485.016144 410.744507,468.386749 410.777191,448.433441 
	C410.835358,412.935516 410.764221,377.437378 410.886444,341.939758 
	C410.892578,340.173950 412.220398,338.412689 413.866577,336.825317 
	C523.590210,336.837402 633.313904,336.834656 743.037537,336.874603 
	C764.009949,336.882233 784.982300,337.058228 805.886963,338.072083 
	C805.886963,523.280579 805.886963,708.489075 805.886963,894.310852 
	C803.806091,893.529053 802.418396,893.094421 801.102600,892.500610 
	C767.118286,877.164429 733.109558,861.881592 699.190674,846.401855 
	C692.559937,843.375732 685.938049,841.494507 678.551819,841.501282 
	C544.254578,841.624023 409.957306,841.626770 275.660034,841.654907 
	C273.896545,841.655273 272.133087,841.654907 270.427338,841.654907 
	C270.427338,772.307800 270.427338,703.734314 270.427338,634.774109 
	C273.605316,634.774109 276.417145,634.774231 279.228973,634.774048 
	C329.215851,634.770081 379.202698,634.758667 429.189575,634.764343 
	C485.174774,634.770630 541.160034,634.832581 597.145142,634.784485 
	C615.067932,634.769104 630.142395,623.492249 635.369934,606.529724 
	C640.645752,589.410706 634.534485,571.247742 619.831665,560.958435 
	C612.764343,556.009705 604.903442,553.981812 596.300903,554.055725 
	C578.979858,554.204590 561.656799,554.128906 544.334534,554.130127 
	C439.067413,554.137329 333.800323,554.144653 228.533203,554.134460 
	C221.396820,554.133789 214.648819,555.342957 208.994141,559.978394 
	C208.994141,559.978394 208.829941,559.796265 208.224930,559.875549 
M985.692322,305.764404 
	C985.499207,309.749207 985.140503,313.733887 985.138245,317.718781 
	C985.110718,366.876007 985.145996,416.033264 985.144531,465.190491 
	C985.139526,629.159607 985.121948,793.128723 985.152771,957.097839 
	C985.153259,959.729614 985.707520,962.361267 985.956299,965.789917 
	C987.170288,969.583069 987.953369,973.584778 989.671570,977.133789 
	C997.847168,994.020813 1016.400391,1002.600037 1034.859863,998.308899 
	C1053.073486,994.074951 1065.817383,977.731079 1065.819580,958.517761 
	C1065.827271,891.209229 1065.814575,823.900635 1065.811523,756.592102 
	C1065.804688,609.146118 1065.803955,461.700104 1065.760010,314.254089 
	C1065.759033,310.939728 1065.505493,307.587311 1064.971924,304.317535 
	C1062.125610,286.870728 1046.896240,272.650024 1029.660767,271.190308 
	C1010.660461,269.581116 994.020630,279.971436 987.632141,297.706604 
	C987.111755,299.806854 986.591431,301.907104 985.909668,304.488434 
	C985.931580,304.656158 985.953430,304.823883 985.692322,305.764404 
z"/>
<path fill="#2B3255" opacity="1.000000" stroke="none" 
	d="
M261.014984,922.117004 
	C249.909775,919.943359 239.085205,917.115845 229.199585,911.208984 
	C208.653534,898.932495 196.138489,881.030518 191.122498,857.130615 
	C191.195465,853.317749 190.922928,850.211121 190.922180,847.104309 
	C190.901611,762.082764 190.906631,677.061279 190.919418,592.039734 
	C190.919907,588.767639 191.039825,585.495483 191.104095,582.223389 
	C193.645996,573.955261 198.448563,567.264587 205.774948,562.048340 
	C207.148743,561.354614 207.989334,560.575439 208.829926,559.796265 
	C208.829941,559.796265 208.994141,559.978394 209.328156,559.938416 
	C212.104050,559.152649 214.539230,558.383911 216.990021,557.668640 
	C218.813568,557.136414 220.647446,556.316956 222.494568,556.265503 
	C225.111786,556.192688 227.745331,556.939270 230.372009,556.940002 
	C352.421600,556.976013 474.471222,556.969177 596.520813,556.965332 
	C597.852661,556.965332 599.219604,557.132751 600.510437,556.896179 
	C606.734558,555.755676 612.045532,557.167969 616.519714,561.848999 
	C617.043579,562.397095 618.945557,561.627991 620.208618,561.469482 
	C634.534485,571.247742 640.645752,589.410706 635.369934,606.529724 
	C630.142395,623.492249 615.067932,634.769104 597.145142,634.784485 
	C541.160034,634.832581 485.174774,634.770630 429.189575,634.764343 
	C379.202698,634.758667 329.215851,634.770081 279.228973,634.774048 
	C276.417145,634.774231 273.605316,634.774109 270.427338,634.774109 
	C270.427338,703.734314 270.427338,772.307800 270.427338,841.654907 
	C272.133087,841.654907 273.896545,841.655273 275.660034,841.654907 
	C409.957306,841.626770 544.254578,841.624023 678.551819,841.501282 
	C685.938049,841.494507 692.559937,843.375732 699.190674,846.401855 
	C733.109558,861.881592 767.118286,877.164429 801.102600,892.500610 
	C802.418396,893.094421 803.806091,893.529053 805.886963,894.310852 
	C805.886963,708.489075 805.886963,523.280579 805.777527,337.244171 
	C803.512634,335.945221 801.357300,335.063049 799.201660,335.061951 
	C671.673828,334.995941 544.145996,335.002350 416.618195,335.006439 
	C415.289978,335.006500 413.961792,335.067810 412.633545,335.100525 
	C412.733307,335.616791 412.833038,336.133026 412.932800,336.649292 
	C412.220398,338.412689 410.892578,340.173950 410.886444,341.939758 
	C410.764221,377.437378 410.835358,412.935516 410.777191,448.433441 
	C410.744507,468.386749 397.588623,485.016144 378.810852,489.087494 
	C354.389648,494.382446 330.256012,476.167297 329.949310,451.193451 
	C329.466309,411.868683 329.113251,372.515961 330.053253,333.207306 
	C331.069122,290.725494 367.416077,256.148712 409.928101,256.112640 
	C542.254272,256.000366 674.580688,256.008484 806.906799,256.123718 
	C850.643005,256.161804 886.126648,292.673370 886.148560,337.420593 
	C886.212769,468.413483 886.165283,599.406433 886.191711,730.399353 
	C886.202759,785.062073 886.265259,839.724915 886.348755,894.387573 
	C886.439087,953.548523 828.377625,992.320740 774.032837,968.930115 
	C741.438904,954.901245 709.259094,939.910522 676.888367,925.362671 
	C674.611511,924.339478 672.295776,923.402832 669.203369,922.374512 
	C603.756348,922.292908 539.104065,922.264954 474.451752,922.232178 
	C403.306152,922.196106 332.160583,922.155579 261.014984,922.117004 
z"/>
<path fill="#2B3255" opacity="1.000000" stroke="none" 
	d="
M988.064819,297.163757 
	C994.020630,279.971436 1010.660461,269.581116 1029.660767,271.190308 
	C1046.896240,272.650024 1062.125610,286.870728 1064.971924,304.317535 
	C1065.505493,307.587311 1065.759033,310.939728 1065.760010,314.254089 
	C1065.803955,461.700104 1065.804688,609.146118 1065.811523,756.592102 
	C1065.814575,823.900635 1065.827271,891.209229 1065.819580,958.517761 
	C1065.817383,977.731079 1053.073486,994.074951 1034.859863,998.308899 
	C1016.400391,1002.600037 997.847168,994.020813 989.671570,977.133789 
	C987.953369,973.584778 987.170288,969.583069 986.196533,965.042542 
	C986.598511,962.652100 986.901794,961.009094 986.901978,959.366028 
	C986.924072,743.340576 986.926819,527.315063 986.885803,311.289612 
	C986.885376,309.190216 986.291870,307.090942 985.975281,304.991608 
	C985.953430,304.823883 985.931580,304.656158 986.295532,304.125793 
	C987.142517,301.563354 987.603638,299.363556 988.064819,297.163757 
z"/>
<path fill="#3D424A" opacity="1.000000" stroke="none" 
	d="
M985.833801,305.377991 
	C986.291870,307.090942 986.885376,309.190216 986.885803,311.289612 
	C986.926819,527.315063 986.924072,743.340576 986.901978,959.366028 
	C986.901794,961.009094 986.598511,962.652100 986.219971,964.644043 
	C985.707520,962.361267 985.153259,959.729614 985.152771,957.097839 
	C985.121948,793.128723 985.139526,629.159607 985.144531,465.190491 
	C985.145996,416.033264 985.110718,366.876007 985.138245,317.718781 
	C985.140503,313.733887 985.499207,309.749207 985.833801,305.377991 
z"/>
<path fill="#41464D" opacity="1.000000" stroke="none" 
	d="
M620.020142,561.213989 
	C618.945557,561.627991 617.043579,562.397095 616.519714,561.848999 
	C612.045532,557.167969 606.734558,555.755676 600.510437,556.896179 
	C599.219604,557.132751 597.852661,556.965332 596.520813,556.965332 
	C474.471222,556.969177 352.421600,556.976013 230.372009,556.940002 
	C227.745331,556.939270 225.111786,556.192688 222.494568,556.265503 
	C220.647446,556.316956 218.813568,557.136414 216.990021,557.668640 
	C214.539230,558.383911 212.104050,559.152649 209.239838,559.853638 
	C214.648819,555.342957 221.396820,554.133789 228.533203,554.134460 
	C333.800323,554.144653 439.067413,554.137329 544.334534,554.130127 
	C561.656799,554.128906 578.979858,554.204590 596.300903,554.055725 
	C604.903442,553.981812 612.764343,556.009705 620.020142,561.213989 
z"/>
<path fill="#FFE200" opacity="1.000000" stroke="none" 
	d="
M261.180603,922.464539 
	C332.160583,922.155579 403.306152,922.196106 474.451752,922.232178 
	C539.104065,922.264954 603.756348,922.292908 668.819702,922.425049 
	C667.373352,923.015015 665.516296,923.929077 663.658630,923.930054 
	C531.258606,923.998108 398.858551,923.997925 266.458527,923.945740 
	C264.754272,923.945068 263.050323,923.206299 261.180603,922.464539 
z"/>
<path fill="#172658" opacity="1.000000" stroke="none" 
	d="
M413.399658,336.737305 
	C412.833038,336.133026 412.733307,335.616791 412.633545,335.100525 
	C413.961792,335.067810 415.289978,335.006500 416.618195,335.006439 
	C544.145996,335.002350 671.673828,334.995941 799.201660,335.061951 
	C801.357300,335.063049 803.512634,335.945221 805.811401,336.786377 
	C784.982300,337.058228 764.009949,336.882233 743.037537,336.874603 
	C633.313904,336.834656 523.590210,336.837402 413.399658,336.737305 
z"/>
<path fill="#42464E" opacity="1.000000" stroke="none" 
	d="
M190.922699,582.547668 
	C191.039825,585.495483 190.919907,588.767639 190.919418,592.039734 
	C190.906631,677.061279 190.901611,762.082764 190.922180,847.104309 
	C190.922928,850.211121 191.195465,853.317749 191.119232,856.729858 
	C190.290482,852.456482 189.161179,847.878479 189.154694,843.298950 
	C189.037552,760.594910 189.031586,677.890564 189.117401,595.186401 
	C189.121658,591.081055 190.175949,586.976746 190.922699,582.547668 
z"/>
<path fill="#3D424A" opacity="1.000000" stroke="none" 
	d="
M987.848511,297.435181 
	C987.603638,299.363556 987.142517,301.563354 986.376221,303.885254 
	C986.591431,301.907104 987.111755,299.806854 987.848511,297.435181 
z"/>
<path fill="#41464D" opacity="1.000000" stroke="none" 
	d="
M208.527435,559.835938 
	C207.989334,560.575439 207.148743,561.354614 206.094040,561.922241 
	C206.661575,561.098938 207.443253,560.487244 208.527435,559.835938 
z"/>
</svg>